<svg xmlns="http://www.w3.org/2000/svg" width="116" height="356" viewBox="0 0 116 356"><path fill="#fefefe" d="M25.426 133.179c-5.824-.433-12.619.074-16.653-4.909-6.422-7.93-1.86-19.697 8.486-20.749 3.416-.348 6.685-.161 10.05-.12q6.815.051 13.63.028l24.562-.02c6.181-.006 14.113-1.01 19.52 2.087 4.254 2.435 7.234 6.369 7.632 11.346.327 6.216.188 12.69.184 18.977l-.011 35.595.026 104.793-.03 29.627c-.015 5.459-.097 10.984.04 16.436.079 3.132-.027 3.803 3.327 4.103 6.049.541 11.891-.741 16.302 4.331 1.859 2.138 2.74 5.354 3.509 6.346v3.942c-1.111 2.07-1.611 4.023-3.008 6.089-1.762 2.606-4.304 3.308-6.576 4.919H9.102c-3.611-2.177-5.907-3.199-7.725-7.192-.473-1.038-.818-2.049-1.377-3.033v-5.235c3.305-5.346 3.164-7.583 9.967-9.55 3.188-.922 14.171-.032 15.57-1.511.287-3.918.173-8.743.172-12.722l-.013-20.101-.006-61.635-.003-64.974c.01-10.921.485-26.429-.261-36.868"/><path fill="#fefefe" d="M50.34 0h8.837l.07.033c1.249.572 2.978.78 4.34 1.029 13.533 2.48 25.36 12.13 30.24 25.045a43.19 43.19 0 0 1-1.068 33.054 41.61 41.61 0 0 1-22.934 21.444c-2.81 1.057-6.467 1.928-9.476 2.207-1.35-.627-9.618-.507-11.148.02a88 88 0 0 1-2.885-.456c-10.396-1.886-19.862-8.437-25.722-17.1-16.56-24.5-2.97-59.59 26.838-64.394.902-.145 2.166-.346 2.907-.882"/><path fill="#fefefe" fill-opacity=".973" d="M49.201 82.832c1.53-.527 9.797-.647 11.148-.02-2.367.45-8.739.265-11.148.02"/></svg>