<svg xmlns="http://www.w3.org/2000/svg" width="1024" height="1024" viewBox="0 0 1024 1024"><path fill="#fefefe" d="M503.587 185.219q3.552-.138 7.106-.206c8.646-.22 17.293.393 25.822 1.831 26.421 4.659 36.264 18.878 43.022 44.729 2.466 9.437 1.198 18.112 9.469 25.4 5.84 6.013 14.615 6.815 21.674 9.672 13.142 5.318 24.056 8.732 37.485 1.53 6.125-3.284 11.666-8.214 17.734-11.67a49.9 49.9 0 0 1 23.639-6.65c13.928-.428 29.543 3.346 38.148 14.691 2.663 3.51 7.547 10.29 10.202 13.021 3.653 3.757 9.658 7.965 13.867 11.855 19.216 17.761 18.413 41.114 6.018 62.721-6.203 10.814-17.275 18.349-16.747 32.29.346 9.141 5.334 13.833 8.49 21.924 2.031 5.206 3.13 14.19 6.281 18.663 8.141 11.559 22.884 9.943 34.928 12.448 11.286 2.347 24.391 6.168 33.097 13.713 11.361 9.845 14.247 30.56 15.008 44.963a163 163 0 0 1-1.994 34.491c-3.493 20.961-9.496 32.067-29.853 39.06a112.7 112.7 0 0 1-21.756 5.189c-9.611 1.275-20.156 1.323-27.032 9.325-5.369 6.249-4.938 15.069-8.05 22.376-2.663 6.25-6.868 11.628-8.49 18.345-3.659 15.148 6.507 23.881 13.765 35.389 5.54 8.785 9.507 18.584 10.099 29.051.755 13.372-5.979 26.487-16.007 35.082-4.459 3.821-9.613 6.894-13.726 11.109-4.732 4.848-7.776 11.196-12.315 16.269-6.397 7.148-14.265 11.561-23.694 13.393-35.62 6.917-45.469-22.154-68.58-20.441-7.963.59-14.418 4.531-21.799 7.054-5.502 1.88-11.924 2.917-16.875 6.045-12.869 8.131-10.431 23.913-13.867 36.673-2.616 9.716-7.881 19.616-14.445 27.242-10.696 12.425-28.347 15.296-43.844 16.491-9.367 1.814-27.42-1.031-36.831-3.074-16.807-3.649-27.636-10.848-35.36-26.48a71 71 0 0 1-6.397-19.055c-1.866-10.424-1.036-21.641-10.09-29.12-6.59-5.443-16.266-6.848-24.169-9.39-6.088-1.958-11.926-5.021-18.283-6.044-21.239-3.418-29.179 18.478-53.048 20.742-16.074 1.525-32.202-2.543-42.758-15.308-3.786-4.578-6.62-9.834-10.731-14.164-3.292-3.468-7.631-6.092-11.321-9.141-20.789-17.181-22.33-42.801-9.165-65.284 4.26-7.275 10.803-13.298 14.312-20.933 1.953-4.248 2.311-8.672 1.857-13.273-.829-8.395-5.933-14.984-8.659-22.728-2.011-5.715-2.196-12.151-5.349-17.42-6.885-11.51-20.006-11.564-31.668-13.717-10.322-1.906-22.114-4.891-30.348-11.775-12.662-10.588-15.21-26.722-16.583-42.288-1.134-12.852-.926-26.476 1.407-39.154 5.271-28.638 19.005-37.467 46.574-43.052 10.303-2.087 21.74-3.256 28.805-12.048 4.818-5.994 5.02-13.706 7.917-20.541 2.402-5.667 6.172-10.716 7.536-16.811 3.226-14.409-7.261-22.849-14.1-33.652-5.294-8.363-9.2-17.748-10.035-27.69-1.25-14.875 5.303-27.818 16.428-37.41 4.197-3.618 8.917-6.634 12.956-10.434 4.548-4.279 7.875-9.591 11.942-14.294 6.02-6.962 13.511-11.021 22.414-13.19 37.978-9.251 49.418 22.761 73.594 20.943 7.206-.541 13.396-3.711 20.29-5.496 6.25-1.619 12.993-2.692 18.67-5.936 12.844-7.339 11.998-19.855 15.342-32.397 2.553-9.575 7.227-20.063 13.763-27.602 11.114-12.82 28.354-14.766 44.308-15.852m20.633 460.864c76.751-6.109 134.118-73.121 128.321-149.897s-72.577-134.414-149.375-128.928c-77.24 5.518-135.282 72.766-129.451 149.982 5.83 77.217 73.312 134.986 150.505 128.843"/></svg>