<svg xmlns="http://www.w3.org/2000/svg" width="1024" height="1024" viewBox="0 0 1024 1024"><path fill="#fefefe" d="M509.341 238.707c11.958-1.127 27.503 4.109 35.964 12.788 7.399 7.589 12.802 20.313 17.593 29.799a5341 5341 0 0 1 26.682 53.312c4.751 9.673 9.505 19.349 14.47 28.929 9.386 18.109 29.827 15.152 48.017 16.397a1236 1236 0 0 1 49.535 4.219c11.638 1.121 21.948 2.215 33.788 4.215 27.384 4.624 47.94 35.069 34.83 61.235-6.127 12.227-28.069 30.151-38.681 40.55l-42.087 41.41c-6.856 6.745-21.327 17.18-19.556 27.451 1.693 9.812 3.707 19.847 5.549 29.662l12.488 66.982c2.177 11.942 7.26 32.866 4.616 44.033a43.8 43.8 0 0 1-19.601 26.947c-34.643 21.576-62.939-3.214-92.01-21.104-13.397-8.002-26.597-16.413-39.916-24.523-8.041-4.897-18.096-13.125-27.123-15.077-3.209-.525-8.149-.63-11.09.796-9.544 4.628-18.586 11.215-27.6 16.859-20.457 12.808-40.825 26.086-61.69 38.198-5.2 3.019-9.913 6.903-15.412 9.409-3.969 1.809-8.282 2.802-12.604 3.295-13.939 1.587-29.522-1.251-40.684-10.168-9.228-7.372-15.876-18.417-17.112-30.272-1.118-10.734 9.353-50.344 12.307-63.184l11.115-49.882c2.572-11.427 8.316-25.783-.296-35.395-8.791-9.812-18.537-18.458-28.111-27.446a2251 2251 0 0 1-45.529-43.272c-6.212-6.026-14.51-13.327-19.565-20.121-10.649-14.314-9.134-35.801 2.154-49.389a49.34 49.34 0 0 1 20.384-14.538c10.259-3.989 24.652-5.46 35.772-6.637a936 936 0 0 1 51.513-4.173c10.098-.577 20.265-.987 30.355-1.634 20.035-1.284 24.308-18.151 31.756-33.106l28.177-55.666c12.518-24.695 19.773-48.374 51.602-50.899"/></svg>